<svg width="60" height="53" viewBox="0 0 60 53" fill="none" xmlns="http://www.w3.org/2000/svg">
<path d="M9.45349 11.6441C10.9308 8.59923 14.3202 6.625 18.0705 6.625H41.9295C45.6798 6.625 49.0692 8.59922 50.5465 11.6441L53.5161 17.7648C53.7981 18.346 54.3042 18.8201 54.9444 19.1029C56.8148 19.9289 58.1486 21.4715 58.5587 23.2828L59.8179 28.8444C59.939 29.3792 60 29.9232 60 30.4685V31.8366C60 34.5329 58.5363 36.9469 56.25 38.4533V44.7188C56.25 45.6335 55.4105 46.375 54.375 46.375H46.875C45.8395 46.375 45 45.6335 45 44.7188V40.2866C40.1564 40.4456 34.7077 40.5781 30 40.5781C25.2923 40.5781 19.8436 40.4456 15 40.2866V44.7188C15 45.6335 14.1605 46.375 13.125 46.375H5.625C4.58947 46.375 3.75 45.6335 3.75 44.7188V38.4533C1.46374 36.9469 0 34.5329 0 31.8366V30.4685C0 29.9232 0.0609815 29.3792 0.182056 28.8444L1.44128 23.2828C1.85139 21.4715 3.18523 19.9289 5.0556 19.1029C5.69584 18.8201 6.20189 18.346 6.48386 17.7648L9.45349 11.6441ZM11.25 33.125C13.3211 33.125 15 31.6419 15 29.8125C15 27.9831 13.3211 26.5 11.25 26.5C9.17893 26.5 7.5 27.9831 7.5 29.8125C7.5 31.6419 9.17893 33.125 11.25 33.125ZM48.75 33.125C50.8211 33.125 52.5 31.6419 52.5 29.8125C52.5 27.9831 50.8211 26.5 48.75 26.5C46.6789 26.5 45 27.9831 45 29.8125C45 31.6419 46.6789 33.125 48.75 33.125ZM22.5 26.5C20.4289 26.5 18.75 27.9831 18.75 29.8125C18.75 31.6419 20.4289 33.125 22.5 33.125H37.5C39.5711 33.125 41.25 31.6419 41.25 29.8125C41.25 27.9831 39.5711 26.5 37.5 26.5H22.5ZM10.8963 17.1873C10.2359 18.3539 11.291 19.7158 12.7629 19.6111C16.1702 19.3687 25.3244 19.0469 29.9999 19.0469C34.6755 19.0469 43.8297 19.3687 47.237 19.6111C48.7089 19.7158 49.764 18.3539 49.1036 17.1873L45.5182 10.8531C45.2006 10.2919 44.5513 9.9375 43.8411 9.9375H16.1588C15.4486 9.9375 14.7993 10.2919 14.4817 10.8531L10.8963 17.1873Z" fill="black"/>
</svg>
