<svg width="30" height="35" viewBox="0 0 30 35" fill="none" xmlns="http://www.w3.org/2000/svg">
<path d="M23.4375 35C27.0619 35 30 31.5722 30 27.3438C30 23.1153 27.0619 19.6875 23.4375 19.6875C19.8131 19.6875 16.875 23.1153 16.875 27.3438C16.875 31.5722 19.8131 35 23.4375 35ZM24.375 24.0625V26.25H26.25C26.7678 26.25 27.1875 26.7397 27.1875 27.3438C27.1875 27.9478 26.7678 28.4375 26.25 28.4375H24.375V30.625C24.375 31.2291 23.9553 31.7188 23.4375 31.7188C22.9197 31.7188 22.5 31.2291 22.5 30.625V28.4375H20.625C20.1072 28.4375 19.6875 27.9478 19.6875 27.3438C19.6875 26.7397 20.1072 26.25 20.625 26.25H22.5V24.0625C22.5 23.4584 22.9197 22.9688 23.4375 22.9688C23.9553 22.9688 24.375 23.4584 24.375 24.0625Z" fill="black"/>
<path d="M22.68 13.6127C23.2877 13.2904 23.8668 12.9073 24.375 12.4647V15.3125C24.375 15.9443 23.9762 16.7435 22.9624 17.5153C23.1197 17.5052 23.2781 17.5 23.4375 17.5C24.4237 17.5 25.3703 17.6974 26.25 18.0601V8.75C26.25 6.5472 24.6091 4.91033 22.68 3.8873C20.6662 2.81939 17.95 2.1875 15 2.1875C12.05 2.1875 9.3338 2.81939 7.32002 3.8873C5.39088 4.91033 3.75 6.5472 3.75 8.75V28.4375C3.75 30.6403 5.39088 32.2772 7.32002 33.3002C9.3338 34.3681 12.05 35 15 35C16.0054 35 16.9837 34.9266 17.9163 34.7876C17.3324 34.1976 16.8186 33.5156 16.3915 32.761C15.9382 32.7949 15.4736 32.8125 15 32.8125C12.2546 32.8125 9.81452 32.2202 8.0959 31.3088C6.29266 30.3525 5.625 29.255 5.625 28.4375V25.5897C6.13321 26.0323 6.71231 26.4154 7.32002 26.7377C9.3338 27.8056 12.05 28.4375 15 28.4375C15.0172 28.4375 15.0343 28.4375 15.0515 28.4374C15.0175 28.0783 15 27.7134 15 27.3438C15 26.974 15.0175 26.6091 15.0515 26.2499C15.0344 26.25 15.0172 26.25 15 26.25C12.2546 26.25 9.81452 25.6577 8.0959 24.7463C6.29266 23.79 5.625 22.6925 5.625 21.875V19.0272C6.13321 19.4698 6.71231 19.8529 7.32002 20.1752C9.3338 21.2431 12.05 21.875 15 21.875C15.4907 21.875 15.975 21.8575 16.4506 21.8234C17.0096 20.8624 17.7104 20.0228 18.5179 19.3455C17.4346 19.5649 16.2489 19.6875 15 19.6875C12.2546 19.6875 9.81452 19.0952 8.0959 18.1838C6.29266 17.2275 5.625 16.13 5.625 15.3125V12.4647C6.13321 12.9073 6.71231 13.2904 7.32002 13.6127C9.3338 14.6806 12.05 15.3125 15 15.3125C17.95 15.3125 20.6662 14.6806 22.68 13.6127ZM5.625 8.75C5.625 7.9325 6.29266 6.83499 8.0959 5.87872C9.81452 4.96734 12.2546 4.375 15 4.375C17.7454 4.375 20.1855 4.96734 21.9041 5.87872C23.7073 6.83499 24.375 7.9325 24.375 8.75C24.375 9.5675 23.7073 10.665 21.9041 11.6213C20.1855 12.5327 17.7454 13.125 15 13.125C12.2546 13.125 9.81452 12.5327 8.0959 11.6213C6.29266 10.665 5.625 9.5675 5.625 8.75Z" fill="black"/>
</svg>
