<svg width="27" height="20" viewBox="0 0 27 20" fill="none" xmlns="http://www.w3.org/2000/svg">
<path d="M13.5001 5.94276C10.4751 5.94276 8.02283 7.75924 8.02283 9.99997C8.02283 12.2407 10.4751 14.0572 13.5001 14.0572C16.525 14.0572 18.9773 12.2407 18.9773 9.99997C18.9773 7.75924 16.525 5.94276 13.5001 5.94276ZM9.71033 9.99997C9.71033 8.44959 11.4071 7.19276 13.5001 7.19276C15.5931 7.19276 17.2898 8.44959 17.2898 9.99997C17.2898 11.5503 15.5931 12.8072 13.5001 12.8072C11.4071 12.8072 9.71033 11.5503 9.71033 9.99997Z" fill="black"/>
<path d="M16.5315 1.67922C15.6406 -0.559741 11.3594 -0.559739 10.4685 1.67922L10.3101 2.07724C10.0448 2.74399 9.01667 3.05944 8.19259 2.72694L7.70066 2.52845C4.9334 1.41191 1.90608 3.65437 3.41341 5.7042L3.68137 6.06859C4.13024 6.67901 3.70439 7.44057 2.80427 7.6371L2.26695 7.75441C-0.75565 8.41434 -0.755648 11.5857 2.26695 12.2456L2.80427 12.3629C3.70439 12.5594 4.13024 13.321 3.68137 13.9314L3.41341 14.2958C1.90608 16.3456 4.93339 18.5881 7.70066 17.4715L8.19259 17.2731C9.01667 16.9406 10.0448 17.256 10.3101 17.9228L10.4685 18.3208C11.3594 20.5597 15.6406 20.5597 16.5315 18.3208L16.6899 17.9228C16.9552 17.256 17.9833 16.9406 18.8074 17.2731L19.2993 17.4715C22.0666 18.5881 25.0939 16.3456 23.5866 14.2958L23.3186 13.9314C22.8698 13.321 23.2956 12.5594 24.1957 12.3629L24.7331 12.2456C27.7556 11.5857 27.7556 8.41434 24.7331 7.75441L24.1957 7.6371C23.2956 7.44057 22.8698 6.67901 23.3186 6.06859L23.5866 5.70419C25.0939 3.65437 22.0666 1.41191 19.2993 2.52845L18.8074 2.72694C17.9833 3.05944 16.9552 2.74399 16.6899 2.07724L16.5315 1.67922ZM12.0871 2.03262C12.5023 0.989125 14.4977 0.989126 14.9129 2.03262L15.0713 2.43064C15.6405 3.86124 17.8464 4.53808 19.6146 3.82465L20.1065 3.62617C21.3963 3.10579 22.8072 4.15092 22.1047 5.10626L21.8367 5.47066C20.8736 6.78041 21.7873 8.41443 23.7186 8.8361L24.256 8.95341C25.6647 9.26098 25.6647 10.739 24.256 11.0466L23.7186 11.1639C21.7873 11.5856 20.8736 13.2196 21.8367 14.5293L22.1047 14.8937C22.8072 15.8491 21.3963 16.8942 20.1065 16.3738L19.6146 16.1753C17.8465 15.4619 15.6405 16.1388 15.0713 17.5694L14.9129 17.9674C14.4977 19.0109 12.5023 19.0109 12.0871 17.9674L11.9287 17.5694C11.3595 16.1388 9.15355 15.4619 7.38539 16.1753L6.89346 16.3738C5.60374 16.8942 4.19281 15.8491 4.89533 14.8937L5.16328 14.5293C6.1264 13.2196 5.21268 11.5856 3.28137 11.1639L2.74404 11.0466C1.33532 10.739 1.33532 9.26098 2.74404 8.95341L3.28137 8.8361C5.21268 8.41443 6.12641 6.78041 5.16328 5.47066L4.89533 5.10627C4.19281 4.15092 5.60374 3.10579 6.89346 3.62617L7.38539 3.82465C9.15355 4.53808 11.3595 3.86124 11.9287 2.43064L12.0871 2.03262Z" fill="black"/>
</svg>
