<svg width="28" height="19" viewBox="0 0 28 19" fill="none" xmlns="http://www.w3.org/2000/svg">
<path d="M15.2374 1.7814C14.554 1.31766 13.446 1.31766 12.7626 1.7814L1.13128 9.67406C0.789573 9.90593 0.789573 10.2819 1.13128 10.5137C1.47299 10.7456 2.02701 10.7456 2.36872 10.5137L3.5 9.74609V16.0314C3.5 17.0152 4.67525 17.8127 6.125 17.8127H21.875C23.3247 17.8127 24.5 17.0152 24.5 16.0314V9.74609L25.6313 10.5137C25.973 10.7456 26.527 10.7456 26.8687 10.5137C27.2104 10.2819 27.2104 9.90593 26.8687 9.67406L22.75 6.87922V2.9689C22.75 2.64099 22.3582 2.37515 21.875 2.37515H20.125C19.6418 2.37515 19.25 2.64099 19.25 2.9689V4.50422L15.2374 1.7814ZM22.75 8.55859V16.0314C22.75 16.3593 22.3582 16.6252 21.875 16.6252H6.125C5.64175 16.6252 5.25 16.3593 5.25 16.0314V8.55859L14 2.62109L22.75 8.55859Z" fill="black"/>
</svg>
