<svg width="24" height="20" viewBox="0 0 24 20" fill="none" xmlns="http://www.w3.org/2000/svg">
<path d="M7.47094 5C7.2431 5 7.02762 5.08631 6.88529 5.23457L2.31047 10H9C9.41422 10 9.75 10.2798 9.75 10.625C9.75 11.6605 10.7574 12.5 12 12.5C13.2426 12.5 14.25 11.6605 14.25 10.625C14.25 10.2798 14.5858 10 15 10H21.6895L17.1147 5.23457C16.9724 5.08631 16.7569 5 16.5291 5H7.47094ZM22.4004 11.25H15.675C15.3275 12.6764 13.8142 13.75 12 13.75C10.1858 13.75 8.67247 12.6764 8.32502 11.25H1.59959L2.07997 14.4525C2.12688 14.7653 2.44593 15 2.82418 15H21.1758C21.5541 15 21.8731 14.7653 21.92 14.4525L22.4004 11.25ZM5.71399 4.4537C6.14097 4.00892 6.78743 3.75 7.47094 3.75H16.5291C17.2126 3.75 17.859 4.00892 18.286 4.4537L23.8357 10.2346C23.9621 10.3663 24.0193 10.5351 23.9942 10.7025L23.4085 14.6076C23.2677 15.5459 22.3106 16.25 21.1758 16.25H2.82418C1.68945 16.25 0.732297 15.5459 0.591551 14.6076L0.0057947 10.7025C-0.0193192 10.5351 0.0378665 10.3663 0.164351 10.2346L5.71399 4.4537Z" fill="black"/>
</svg>
