<svg width="59" height="43" viewBox="0 0 59 43" fill="none" xmlns="http://www.w3.org/2000/svg">
<path fill-rule="evenodd" clip-rule="evenodd" d="M0 0H3.6875V40.3125H59V43H0V0ZM36.875 9.40625C36.875 8.66412 37.7005 8.0625 38.7188 8.0625H53.4688C54.487 8.0625 55.3125 8.66412 55.3125 9.40625V20.1562C55.3125 20.8984 54.487 21.5 53.4688 21.5C52.4505 21.5 51.625 20.8984 51.625 20.1562V13.1706L38.302 25.0384C37.9721 25.3322 37.4871 25.5107 36.9668 25.5296C36.4466 25.5485 35.9396 25.4061 35.5713 25.1377L26.0345 18.1871L12.5536 31.6966C11.9547 32.2968 10.8016 32.4295 9.97806 31.993C9.15454 31.5565 8.97247 30.7161 9.57139 30.1159L24.3214 15.3346C24.6385 15.0168 25.1307 14.8161 25.6683 14.7854C26.2058 14.7546 26.7349 14.8969 27.1162 15.1748L36.7381 22.1874L49.578 10.75H38.7188C37.7005 10.75 36.875 10.1484 36.875 9.40625Z" fill="black"/>
</svg>
