<svg width="20" height="18" viewBox="0 0 20 18" fill="none" xmlns="http://www.w3.org/2000/svg">
<path d="M14.6777 11.6369C15.6661 10.4257 16.25 8.93047 16.25 7.3125C16.25 3.27392 12.6123 0 8.125 0C3.63769 0 0 3.27392 0 7.3125C0 11.3511 3.63769 14.625 8.125 14.625C9.92323 14.625 11.585 14.0992 12.9309 13.2092L12.9299 13.2099C12.9667 13.2549 13.0078 13.298 13.053 13.3387L17.8661 17.6705C18.3543 18.1098 19.1457 18.1098 19.6339 17.6705C20.122 17.2312 20.122 16.5188 19.6339 16.0795L14.8208 11.7477C14.7756 11.707 14.7277 11.6701 14.6777 11.6369ZM15 7.3125C15 10.7298 11.922 13.5 8.125 13.5C4.32804 13.5 1.25 10.7298 1.25 7.3125C1.25 3.89524 4.32804 1.125 8.125 1.125C11.922 1.125 15 3.89524 15 7.3125Z" fill="black"/>
</svg>
