<svg width="66" height="53" viewBox="0 0 66 53" fill="none" xmlns="http://www.w3.org/2000/svg">
<path d="M66 26.5C66 33.5282 62.5232 40.2686 56.3345 45.2383C50.1458 50.208 41.7521 53 33 53C24.2479 53 15.8542 50.208 9.66548 45.2383C3.47678 40.2686 0 33.5282 0 26.5C0 19.4718 3.47678 12.7314 9.66548 7.76167C15.8542 2.79196 24.2479 0 33 0C41.7521 0 50.1458 2.79196 56.3345 7.76167C62.5232 12.7314 66 19.4718 66 26.5ZM35.0625 14.9062C35.0625 14.467 34.8452 14.0457 34.4584 13.7351C34.0716 13.4245 33.547 13.25 33 13.25C32.453 13.25 31.9284 13.4245 31.5416 13.7351C31.1548 14.0457 30.9375 14.467 30.9375 14.9062V24.8438H18.5625C18.0155 24.8438 17.4909 25.0182 17.1041 25.3289C16.7173 25.6395 16.5 26.0607 16.5 26.5C16.5 26.9393 16.7173 27.3605 17.1041 27.6711C17.4909 27.9818 18.0155 28.1562 18.5625 28.1562H30.9375V38.0938C30.9375 38.533 31.1548 38.9543 31.5416 39.2649C31.9284 39.5755 32.453 39.75 33 39.75C33.547 39.75 34.0716 39.5755 34.4584 39.2649C34.8452 38.9543 35.0625 38.533 35.0625 38.0938V28.1562H47.4375C47.9845 28.1562 48.5091 27.9818 48.8959 27.6711C49.2827 27.3605 49.5 26.9393 49.5 26.5C49.5 26.0607 49.2827 25.6395 48.8959 25.3289C48.5091 25.0182 47.9845 24.8438 47.4375 24.8438H35.0625V14.9062Z" fill="black"/>
</svg>
